name Walk3.mot
datacolumns 19
datarows 22
range 1.17000000 1.19100000
endheader

                time	   L_ground_force_vx	   L_ground_force_vy	   L_ground_force_vz	   L_ground_force_px	   L_ground_force_py	   L_ground_force_pz	   R_ground_force_vx	   R_ground_force_vy	   R_ground_force_vz	   R_ground_force_px	   R_ground_force_py	   R_ground_force_pz	   L_ground_torque_x	   L_ground_torque_y	   L_ground_torque_z	   R_ground_torque_x	   R_ground_torque_y	   R_ground_torque_z	
          1.17000000	          0.00000000	          0.00000000	          0.00000000	          0.00000000	          0.00000000	          0.00000000	          0.00000000	          0.00000000	          0.00000000	          0.00000000	          0.00000000	          0.00000000	          0.00000000	          0.00000000	          0.00000000	          0.00000000	          0.00000000	          0.00000000	
          1.17100000	          0.00000000	          0.00000000	          0.00000000	          0.00000000	          0.00000000	          0.00000000	          0.00000000	          0.00000000	          0.00000000	          0.00000000	          0.00000000	          0.00000000	          0.00000000	          0.00000000	          0.00000000	          0.00000000	          0.00000000	          0.00000000	
          1.17200000	          0.00000000	          0.00000000	          0.00000000	          0.00000000	          0.00000000	          0.00000000	          0.00000000	          0.00000000	          0.00000000	          0.00000000	          0.00000000	          0.00000000	          0.00000000	          0.00000000	          0.00000000	          0.00000000	          0.00000000	          0.00000000	
          1.17300000	          0.00000000	          0.00000000	          0.00000000	          0.00000000	          0.00000000	          0.00000000	          0.00000000	          0.00000000	          0.00000000	          0.00000000	          0.00000000	          0.00000000	          0.00000000	          0.00000000	          0.00000000	          0.00000000	          0.00000000	          0.00000000	
          1.17400000	          0.00000000	          0.00000000	          0.00000000	          0.00000000	          0.00000000	          0.00000000	          0.00000000	          0.00000000	          0.00000000	          0.00000000	          0.00000000	          0.00000000	          0.00000000	          0.00000000	          0.00000000	          0.00000000	          0.00000000	          0.00000000	
          1.17500000	          0.00000000	          0.00000000	          0.00000000	          0.00000000	          0.00000000	          0.00000000	          0.00000000	          0.00000000	          0.00000000	          0.00000000	          0.00000000	          0.00000000	          0.00000000	          0.00000000	          0.00000000	          0.00000000	          0.00000000	          0.00000000	
          1.17600000	         -1.35333606	         15.59739148	         -1.33269987	         -0.47539486	          0.00000000	         -0.03465791	          0.00000000	          0.00000000	          0.00000000	          0.00000000	          0.00000000	          0.00000000	          0.00000000	         -0.02006716	          0.00000000	          0.00000000	          0.00000000	          0.00000000	
          1.17700000	         -1.97701173	         26.63473652	         -1.92844480	         -0.47426253	          0.00000000	         -0.03548571	          0.00000000	          0.00000000	          0.00000000	          0.00000000	          0.00000000	          0.00000000	          0.00000000	         -0.01608994	          0.00000000	          0.00000000	          0.00000000	          0.00000000	
          1.17800000	         -2.53688617	         40.77277622	         -2.52061134	         -0.47344132	          0.00000000	         -0.03615849	          0.00000000	          0.00000000	          0.00000000	          0.00000000	          0.00000000	          0.00000000	          0.00000000	         -0.01443929	          0.00000000	          0.00000000	          0.00000000	          0.00000000	
          1.17900000	         -2.94073738	         58.39299882	         -3.09922083	         -0.47266539	          0.00000000	         -0.03651078	          0.00000000	          0.00000000	          0.00000000	          0.00000000	          0.00000000	          0.00000000	          0.00000000	         -0.01723582	          0.00000000	          0.00000000	          0.00000000	          0.00000000	
          1.18000000	         -3.12068711	         79.62630045	         -3.68940530	         -0.47187903	          0.00000000	         -0.03645285	          0.00000000	          0.00000000	          0.00000000	          0.00000000	          0.00000000	          0.00000000	          0.00000000	         -0.02040948	          0.00000000	          0.00000000	          0.00000000	          0.00000000	
          1.18100000	         -3.02644421	        103.90666940	         -4.33864280	         -0.47121673	          0.00000000	         -0.03617431	          0.00000000	          0.00000000	          0.00000000	          0.00000000	          0.00000000	          0.00000000	          0.00000000	         -0.02101270	          0.00000000	          0.00000000	          0.00000000	          0.00000000	
          1.18200000	         -2.63971118	        129.86240957	         -5.09370157	         -0.47078883	          0.00000000	         -0.03589064	          0.00000000	          0.00000000	          0.00000000	          0.00000000	          0.00000000	          0.00000000	          0.00000000	         -0.01806825	          0.00000000	          0.00000000	          0.00000000	          0.00000000	
          1.18300000	         -2.01372636	        155.53928508	         -5.97844494	         -0.47056781	          0.00000000	         -0.03565415	          0.00000000	          0.00000000	          0.00000000	          0.00000000	          0.00000000	          0.00000000	          0.00000000	         -0.00780693	          0.00000000	          0.00000000	          0.00000000	          0.00000000	
          1.18400000	         -1.29597342	        178.86061118	         -6.99670500	         -0.47047233	          0.00000000	         -0.03547178	          0.00000000	          0.00000000	          0.00000000	          0.00000000	          0.00000000	          0.00000000	          0.00000000	          0.01253172	          0.00000000	          0.00000000	          0.00000000	          0.00000000	
          1.18500000	         -0.69591818	        198.17869755	         -8.14768981	         -0.47045350	          0.00000000	         -0.03538109	          0.00000000	          0.00000000	          0.00000000	          0.00000000	          0.00000000	          0.00000000	          0.00000000	          0.04046183	          0.00000000	          0.00000000	          0.00000000	          0.00000000	
          1.18600000	         -0.41948921	        212.67578473	         -9.42497844	         -0.47048659	          0.00000000	         -0.03538247	          0.00000000	          0.00000000	          0.00000000	          0.00000000	          0.00000000	          0.00000000	          0.00000000	          0.07415656	          0.00000000	          0.00000000	          0.00000000	          0.00000000	
          1.18700000	         -0.61394063	        222.43571925	        -10.79978091	         -0.47051856	          0.00000000	         -0.03542142	          0.00000000	          0.00000000	          0.00000000	          0.00000000	          0.00000000	          0.00000000	          0.00000000	          0.11367183	          0.00000000	          0.00000000	          0.00000000	          0.00000000	
          1.18800000	         -1.33198928	        228.23712359	        -12.21304877	         -0.47045973	          0.00000000	         -0.03544961	          0.00000000	          0.00000000	          0.00000000	          0.00000000	          0.00000000	          0.00000000	          0.00000000	          0.15349486	          0.00000000	          0.00000000	          0.00000000	          0.00000000	
          1.18900000	         -2.52415319	        231.23273399	        -13.58669487	         -0.47025497	          0.00000000	         -0.03544444	          0.00000000	          0.00000000	          0.00000000	          0.00000000	          0.00000000	          0.00000000	          0.00000000	          0.18380162	          0.00000000	          0.00000000	          0.00000000	          0.00000000	
          1.19000000	         -4.07923071	        232.64377343	        -14.84450906	         -0.46993180	          0.00000000	         -0.03538310	          0.00000000	          0.00000000	          0.00000000	          0.00000000	          0.00000000	          0.00000000	          0.00000000	          0.20087220	          0.00000000	          0.00000000	          0.00000000	          0.00000000	
          1.19100000	         -5.88135607	        233.53789239	        -15.93361703	         -0.46955444	          0.00000000	         -0.03527362	          0.00000000	          0.00000000	          0.00000000	          0.00000000	          0.00000000	          0.00000000	          0.00000000	          0.21061153	          0.00000000	          0.00000000	          0.00000000	          0.00000000	
